# xmcd
#
# Track frame offsets:
#	150
#	7167
#	29313
#	44499
#	58745
#	73679
#	86357
#	108663
#	116088
#	130065
#	140607
#	154870
#	160766
#	169596
#	176963
#	186289
#	191558
#
# Disc length: 2607 seconds
#
# Revision: 1
# Processed by: cddbd v1.5PL3 Copyright (c) Steve Scherf et al.
# Submitted via: EasyCDDAExtractor 7.0.5.4
#
DISCID=f40a2d11
DTITLE=Johnny Norris - Blues Solos
DYEAR=1900
DGENRE=Blues
TTITLE0=Introduction
TTITLE1=Soho Blues
TTITLE2=Cold Comfort
TTITLE3=Bad Blood Blues
TTITLE4=Home Hooch
TTITLE5=Just Another Wine Bar
TTITLE6=Steady Pickin'
TTITLE7=Southern Rag
TTITLE8=Laid Back Blues
TTITLE9=Lost Key Blues
TTITLE10=Southern Blues
TTITLE11=Down in the Delta
TTITLE12=Bar Room Blues
TTITLE13=Eight Bars on the Highway
TTITLE14=Rollin' Home
TTITLE15=Overdrivin'
TTITLE16=Mean Street
EXTD=
EXTT0=
EXTT1=
EXTT2=
EXTT3=
EXTT4=
EXTT5=
EXTT6=
EXTT7=
EXTT8=
EXTT9=
EXTT10=
EXTT11=
EXTT12=
EXTT13=
EXTT14=
EXTT15=
EXTT16=
PLAYORDER=
